HIERARCHY
ROOT Hips
{
	OFFSET 0.000000 0.000000 0.000000
	CHANNELS 6 Xposition Yposition Zposition Zrotation Yrotation Xrotation 
	JOINT LHipJoint
	{
		OFFSET 0.000000 0.000000 0.000000
		CHANNELS 3 Zrotation Yrotation Xrotation
		JOINT LeftUpLeg
		{
			OFFSET 1.363060 -1.794630 0.839290
			CHANNELS 3 Zrotation Yrotation Xrotation
			JOINT LeftLeg
			{
				OFFSET 2.448110 -6.726130 0.000000
				CHANNELS 3 Zrotation Yrotation Xrotation
				JOINT LeftFoot
				{
					OFFSET 2.562200 -7.039590 0.000000
					CHANNELS 3 Zrotation Yrotation Xrotation
					JOINT LeftToeBase
					{
						OFFSET 0.157640 -0.433110 2.322550
						CHANNELS 3 Zrotation Yrotation Xrotation
						End Site
						{
							OFFSET 0.000000 0.000000 0.000000
						}
					}
				}
			}
		}
	}
	JOINT RHipJoint
	{
		OFFSET 0.000000 0.000000 0.000000
		CHANNELS 3 Zrotation Yrotation Xrotation
		JOINT RightUpLeg
		{
			OFFSET -1.305520 -1.794630 0.839290
			CHANNELS 3 Zrotation Yrotation Xrotation
			JOINT RightLeg
			{
				OFFSET -2.542530 -6.985550 0.000000
				CHANNELS 3 Zrotation Yrotation Xrotation
				JOINT RightFoot
				{
					OFFSET -2.568260 -7.056230 0.000000
					CHANNELS 3 Zrotation Yrotation Xrotation
					JOINT RightToeBase
					{
						OFFSET -0.164730 -0.452590 2.363150
						CHANNELS 3 Zrotation Yrotation Xrotation
						End Site
						{
							OFFSET 0.000000 0.000000 0.000000
						}
					}
				}
			}
		}
	}
	JOINT LowerBack
	{
		OFFSET 0.000000 0.000000 0.000000
		CHANNELS 3 Zrotation Yrotation Xrotation
		JOINT Spine
		{
			OFFSET 0.028270 2.035590 -0.193380
			CHANNELS 3 Zrotation Yrotation Xrotation
			JOINT Spine1
			{
				OFFSET 0.056720 2.048850 -0.042750
				CHANNELS 3 Zrotation Yrotation Xrotation
				JOINT Neck
				{
					OFFSET 0.000000 0.000000 0.000000
					CHANNELS 3 Zrotation Yrotation Xrotation
					JOINT Neck1
					{
						OFFSET -0.054170 1.746240 0.172020
						CHANNELS 3 Zrotation Yrotation Xrotation
						JOINT Head
						{
							OFFSET 0.104070 1.761360 -0.123970
							CHANNELS 3 Zrotation Yrotation Xrotation
							End Site
							{
								OFFSET 0.000000 0.000000 0.000000
							}
						}
					}
				}
				JOINT LeftShoulder
				{
					OFFSET 0.000000 0.000000 0.000000
					CHANNELS 3 Zrotation Yrotation Xrotation
					JOINT LeftArm
					{
						OFFSET 3.362410 1.200890 -0.311210
						CHANNELS 3 Zrotation Yrotation Xrotation
						JOINT LeftForeArm
						{
							OFFSET 4.983000 -0.000000 -0.000000
							CHANNELS 3 Zrotation Yrotation Xrotation
							JOINT LeftHand
							{
								OFFSET 3.483560 -0.000000 -0.000000
								CHANNELS 3 Zrotation Yrotation Xrotation
								JOINT LeftFingerBase
								{
									OFFSET 0.000000 0.000000 0.000000
									CHANNELS 3 Zrotation Yrotation Xrotation
									JOINT LeftHandIndex1
									{
										OFFSET 0.715260 -0.000000 -0.000000
										CHANNELS 3 Zrotation Yrotation Xrotation
										End Site
										{
											OFFSET 0.000000 0.000000 0.000000
										}
									}
								}
								JOINT LThumb
								{
									OFFSET 0.000000 0.000000 0.000000
									CHANNELS 3 Zrotation Yrotation Xrotation
									End Site
									{
										OFFSET 0.000000 0.000000 0.000000
									}
								}
							}
						}
					}
				}
				JOINT RightShoulder
				{
					OFFSET 0.000000 0.000000 0.000000
					CHANNELS 3 Zrotation Yrotation Xrotation
					JOINT RightArm
					{
						OFFSET -3.136600 1.374050 -0.404650
						CHANNELS 3 Zrotation Yrotation Xrotation
						JOINT RightForeArm
						{
							OFFSET -5.241900 -0.000000 -0.000000
							CHANNELS 3 Zrotation Yrotation Xrotation
							JOINT RightHand
							{
								OFFSET -3.444170 -0.000000 -0.000000
								CHANNELS 3 Zrotation Yrotation Xrotation
								JOINT RightFingerBase
								{
									OFFSET 0.000000 0.000000 0.000000
									CHANNELS 3 Zrotation Yrotation Xrotation
									JOINT RightHandIndex1
									{
										OFFSET -0.622530 -0.000000 -0.000000
										CHANNELS 3 Zrotation Yrotation Xrotation
										End Site
										{
											OFFSET 0.000000 0.000000 0.000000
										}
									}
								}
								JOINT RThumb
								{
									OFFSET 0.000000 0.000000 0.000000
									CHANNELS 3 Zrotation Yrotation Xrotation
									End Site
									{
										OFFSET 0.000000 0.000000 0.000000
									}
								}
							}
						}
					}
				}
			}
		}
	}
}
MOTION
Frames: 11
Frame Time: 0.008333
1.223305 17.304126 35.590150 178.393606 3.853368 -177.272177 6.528346 0.852128 -2.456991 -30.269326 3.026112 0.045775 7.669534 16.601949 53.547882 1.129075 14.956841 23.415233 0.029200 -1.103700 -3.034300 -12.306509 -2.245329 -1.228910 31.611972 14.324364 -24.896242 0.101564 -10.940331 25.934392 -1.010675 -7.473071 7.859183 -1.175400 6.881300 -19.364200 -0.259635 -3.715441 0.354615 0.760678 -5.420018 -3.434912 -1.943242 -2.727106 11.186341 0.493365 2.743669 -22.137256 3.780167 7.162676 14.071317 -1.474700 4.357400 23.258700 11.982093 2.655837 -0.530025 -77.382585 17.902202 61.078580 103.899211 -60.727713 -66.858460 1.611112 -0.325358 22.309525 18.290420 2.414750 0.629600 -7.125000 0.000000 0.000000 -7.968500 32.107500 2.535800 -9.738370 -1.801136 1.651473 81.222995 -46.243910 27.542794 -78.096888 62.508279 -41.628978 0.545013 -1.496122 3.915636 -8.530265 -9.046324 1.218500 7.125000 0.000000 0.000000 14.916100 -37.249200 2.924300 
1.243126 17.203943 35.318687 178.592977 4.146074 -177.925587 6.509184 0.872612 -2.442250 -29.601722 3.532294 -0.900890 8.762422 17.306216 57.214709 0.994895 15.969050 22.845270 0.027600 -1.072600 -2.948500 -12.252231 -2.274399 -1.384993 32.479800 13.908447 -23.491031 -0.242314 -11.470419 27.866485 -0.748432 -7.421746 4.683749 -1.024400 6.438400 -18.062000 -0.081407 -3.457185 0.716222 0.721604 -5.053080 -3.345506 -1.953888 -2.536309 11.336046 0.148997 2.540959 -22.032340 4.069583 7.080487 14.146560 -1.081000 4.285300 23.134300 11.943294 2.742057 -0.512639 -77.742353 18.239918 60.572779 103.302740 -60.878417 -66.342118 1.560855 -0.289642 22.384575 17.900483 3.093892 0.812200 -7.125000 0.000000 0.000000 -8.301900 32.788100 2.506100 -9.798577 -1.780926 1.672929 81.477777 -45.840440 27.781916 -77.761456 62.580007 -41.301240 0.519900 -1.486274 3.728196 -8.545602 -8.547964 1.137900 7.125000 0.000000 0.000000 14.824300 -36.768400 3.085100 
1.267472 17.119919 35.053365 178.930331 4.553324 -178.515754 6.482154 0.874705 -2.414975 -28.747527 4.002175 -1.923251 9.820343 17.891221 60.637497 0.874428 16.843288 22.360001 0.033600 -1.184000 -3.255200 -12.261144 -2.263670 -1.418174 33.270904 14.324823 -22.320666 -0.508552 -11.900165 29.363723 -0.574275 -7.291838 1.654231 -0.980900 6.304400 -17.670100 0.102061 -3.132892 1.565817 0.733282 -4.628657 -3.386102 -1.714144 -2.330602 10.583568 0.209099 2.369959 -21.181178 4.013324 6.877039 14.212555 -1.218500 4.304900 22.917100 12.010801 2.674649 -0.502857 -78.314445 19.165507 60.140799 102.707975 -60.997552 -65.771878 1.558597 -0.255750 22.486125 18.077903 3.321450 0.879900 -7.125000 0.000000 0.000000 -8.167600 32.994000 2.423800 -9.803384 -1.730450 1.684256 81.437425 -45.789113 28.364052 -77.296957 62.520635 -40.900959 0.496318 -1.484189 3.545514 -8.603765 -8.250386 1.093700 7.125000 0.000000 0.000000 14.737900 -36.478300 3.173800 
1.292248 17.065304 34.810772 179.262018 4.819047 -179.141007 6.461046 0.881932 -2.414514 -27.818146 4.196429 -3.129666 10.846795 18.407729 63.899743 0.783892 17.029439 21.824510 0.039700 -1.286600 -3.537700 -12.247321 -2.281655 -1.548091 34.180763 13.990433 -21.287610 -0.783478 -12.273529 30.802241 -0.491368 -7.491059 -0.431698 -0.946500 6.196000 -17.354100 0.313284 -2.799110 2.162748 0.706772 -4.145237 -3.270026 -1.691090 -2.092199 10.857321 0.053958 2.197015 -21.636550 4.058584 6.578680 14.043259 -1.169800 4.125700 22.841000 12.039147 2.731509 -0.471970 -78.940343 19.007325 59.341119 101.103314 -61.258776 -64.357564 1.539953 -0.197101 22.475272 18.316796 3.803113 1.026900 -7.125000 0.000000 0.000000 -7.990200 33.452900 2.280800 -9.865250 -1.718003 1.747227 82.316439 -44.354169 28.153895 -76.074866 62.563182 -39.942097 0.524405 -1.533375 3.434954 -8.822429 -8.671139 1.184600 7.125000 0.000000 0.000000 14.610600 -36.854700 3.006400 
1.313901 16.986127 34.565163 179.669556 5.127719 -179.740837 6.438470 0.891060 -2.402642 -26.814791 4.439801 -4.243072 11.888494 18.851230 67.125091 0.653210 17.394116 21.087470 0.048800 -1.425500 -3.920300 -12.246318 -2.302630 -1.662839 35.163050 13.736229 -20.071246 -1.039465 -12.570060 32.059844 -0.434780 -7.640416 -2.693085 -0.893500 6.024600 -16.856000 0.625960 -2.487068 2.860538 0.698017 -3.699229 -3.194439 -1.631962 -1.863048 10.793346 -0.082111 2.032796 -21.448892 4.082194 6.336185 14.114539 -1.130300 4.001800 22.235900 12.079386 2.754667 -0.439679 -79.573104 19.147035 58.570529 99.698899 -61.485064 -63.125837 1.514471 -0.146679 22.491150 18.410223 4.292156 1.173500 -7.125000 0.000000 0.000000 -7.930200 33.926200 2.171700 -9.913526 -1.702726 1.785212 82.828815 -43.228398 28.267999 -74.948334 62.557614 -39.060276 0.526996 -1.566535 3.427621 -9.017613 -8.782745 1.223100 7.125000 0.000000 0.000000 14.461500 -36.942300 2.942200 
1.334153 16.910505 34.327633 -179.853531 5.411987 179.681513 6.414506 0.897804 -2.387062 -25.715862 4.563976 -5.427831 12.911981 19.227927 70.239289 0.496431 17.641860 20.115739 0.059400 -1.572900 -4.326600 -12.252549 -2.329285 -1.779035 36.187929 13.406800 -18.843467 -1.269729 -12.799523 33.137594 -0.412864 -7.784748 -4.727187 -0.846800 5.869300 -16.405700 1.007880 -2.189911 3.588673 0.699519 -3.265856 -3.124573 -1.591906 -1.637000 10.733895 -0.122016 1.910734 -21.469592 4.075662 6.089212 13.973011 -1.166800 3.891900 22.062100 12.140750 2.762311 -0.396842 -80.286962 19.236761 57.662723 98.012725 -61.727306 -61.663602 1.483283 -0.090479 22.489455 18.506372 4.854152 1.344700 -7.125000 0.000000 0.000000 -7.871000 34.473500 2.049800 -9.964529 -1.678706 1.827421 83.374280 -41.851369 28.398031 -73.549194 62.508001 -37.986656 0.525512 -1.609613 3.590263 -9.286778 -8.937850 1.277900 7.125000 0.000000 0.000000 14.257100 -37.068600 2.853100 
1.352681 16.836930 34.097967 -179.350736 5.652114 179.171999 6.392011 0.896749 -2.376462 -24.592655 4.530434 -6.729907 13.914130 19.551652 73.247353 0.308209 17.856816 18.880828 0.071000 -1.719200 -4.730300 -12.260847 -2.357226 -1.899570 37.180165 13.019497 -17.668573 -1.485458 -12.993373 34.109887 -0.417130 -7.914882 -6.597605 -0.806600 5.731700 -16.007900 1.419781 -1.913292 4.238205 0.704998 -2.852606 -3.042025 -1.578111 -1.417522 10.773980 -0.136383 1.812533 -21.548934 4.068488 5.843320 13.807068 -1.211600 3.777200 21.860800 12.208437 2.779075 -0.342119 -81.046622 19.206683 56.619590 96.051603 -61.983758 -59.989833 1.442084 -0.030520 22.457246 18.552495 5.523361 1.548500 -7.125000 0.000000 0.000000 -7.859200 35.132500 1.919700 -10.021602 -1.666570 1.868237 83.959856 -40.195810 28.521982 -71.946069 62.426148 -36.776018 0.516911 -1.659842 3.958613 -9.632644 -9.089107 1.342400 7.125000 0.000000 0.000000 13.986800 -37.190300 2.753500 
1.369809 16.767126 33.873687 -178.889590 5.839425 178.766281 6.371972 0.884907 -2.365457 -23.534641 4.329469 -8.168294 14.866919 19.826493 76.076177 0.093923 18.098451 17.422854 0.083600 -1.865300 -5.133400 -12.267425 -2.381631 -2.009796 38.050879 12.634443 -16.587850 -1.683192 -13.155358 34.970116 -0.442292 -8.032247 -8.337126 -0.773700 5.616400 -15.675500 1.780690 -1.665237 4.791884 0.713978 -2.480778 -2.976520 -1.553870 -1.219578 10.773701 -0.125126 1.716886 -21.534981 4.060159 5.608041 13.665650 -1.266400 3.680200 21.653100 12.281975 2.794033 -0.284133 -81.842331 19.258626 55.474108 93.939398 -62.231964 -58.212977 1.397120 0.029328 22.410552 18.597162 6.244113 1.771500 -7.125000 0.000000 0.000000 -7.855700 35.847600 1.780800 -10.083170 -1.659189 1.899107 84.512594 -38.451867 28.710943 -70.310257 62.303098 -35.551354 0.502710 -1.708605 4.559889 -9.964323 -9.216864 1.402800 7.125000 0.000000 0.000000 13.722100 -37.292100 2.663800 
1.386075 16.702168 33.654901 -178.525248 5.943525 178.482687 6.357127 0.858208 -2.358955 -22.620341 3.924094 -9.754701 15.753020 20.064650 78.684033 -0.128097 18.396701 15.875886 0.093200 -1.969000 -5.419900 -12.268115 -2.397379 -2.107069 38.734065 12.283297 -15.674333 -1.872200 -13.309508 35.774000 -0.483137 -8.173364 -9.946057 -0.755300 5.550600 -15.485900 2.035350 -1.443703 5.196004 0.719974 -2.152658 -2.922302 -1.529385 -1.045759 10.781320 -0.076783 1.631979 -21.450163 4.059403 5.376978 13.534687 -1.328100 3.597500 21.417500 12.354250 2.814160 -0.222913 -82.625382 19.361460 54.257078 91.736072 -62.457431 -56.391741 1.345991 0.087325 22.354627 18.592393 7.042500 2.016900 -7.125000 0.000000 0.000000 -7.904200 36.645800 1.636700 -10.148946 -1.661712 1.924944 85.094658 -36.643833 28.894601 -68.793709 62.164728 -34.417948 0.487473 -1.752344 5.379522 -10.221754 -9.321642 1.452000 7.125000 0.000000 0.000000 13.510500 -37.374800 2.592800 
1.401480 16.643567 33.440640 -178.299297 5.961424 178.325413 6.350352 0.815470 -2.358683 -21.912195 3.309757 -11.483527 16.554588 20.277277 81.026714 -0.342498 18.737439 14.355762 0.101900 -2.058800 -5.668100 -12.257821 -2.402205 -2.191553 39.192887 11.965688 -14.960869 -2.060063 -13.469718 36.560298 -0.534143 -8.377490 -11.430050 -0.748200 5.525200 -15.412700 2.158496 -1.247945 5.422207 0.715240 -1.870747 -2.876718 -1.525076 -0.897276 10.842676 -0.019218 1.543374 -21.397255 4.084876 5.151372 13.425382 -1.366300 3.521100 21.212800 12.415026 2.849818 -0.164723 -83.366266 19.492339 52.988827 89.524440 -62.644730 -54.600232 1.294580 0.137434 22.284795 18.562902 7.824232 2.257200 -7.125000 0.000000 0.000000 -7.980300 37.432900 1.497700 -10.223311 -1.671199 1.944892 85.744009 -34.778812 29.031421 -67.499720 62.039316 -33.442251 0.475896 -1.788564 6.397104 -10.340774 -9.397011 1.480700 7.125000 0.000000 0.000000 13.401900 -37.431200 2.552100 
1.415699 16.592183 33.231010 -178.195394 5.895089 178.264575 6.352061 0.759634 -2.361550 -21.393084 2.496009 -13.316660 17.258728 20.471802 83.071447 -0.542233 19.106754 12.927201 0.108700 -2.125900 -5.853700 -12.236163 -2.398348 -2.265574 39.461281 11.653216 -14.422804 -2.249654 -13.635656 37.339633 -0.589317 -8.644226 -12.773436 -0.753700 5.544900 -15.469400 2.170178 -1.075653 5.528348 0.699232 -1.630422 -2.843609 -1.545606 -0.769989 10.916529 0.041714 1.446393 -21.367834 4.138403 4.934624 13.344594 -1.375200 3.454100 21.055500 12.462537 2.897203 -0.114158 -84.042461 19.668320 51.711502 87.389968 -62.782322 -52.905697 1.244204 0.179082 22.170533 18.505064 8.568605 2.483900 -7.125000 0.000000 0.000000 -8.086000 38.187200 1.367200 -10.306072 -1.680542 1.960321 86.467200 -32.908844 29.122974 -66.489834 61.946381 -32.664319 0.469624 -1.820342 7.470246 -10.365050 -9.452747 1.495000 7.125000 0.000000 0.000000 13.363300 -37.469400 2.531600 
